<?xml version="1.0" encoding="iso-8859-1"?>
<!-- Generator: Adobe Illustrator 24.1.2, SVG Export Plug-In . SVG Version: 6.00 Build 0)  -->
<svg version="1.1" id="Layer_1" xmlns="http://www.w3.org/2000/svg" xmlns:xlink="http://www.w3.org/1999/xlink" x="0px" y="0px"
	 viewBox="0 0 307 307" style="enable-background:new 0 0 307 307;" xml:space="preserve">
<g>
	<path d="M128.323,0.42c8.465,2.761,11.403,8.783,11.354,17.421c-0.202,35.243-0.082,70.488-0.086,105.732
		c-0.001,10.92-5.44,16.323-16.427,16.324c-35.544,0.003-71.087,0.003-106.631,0c-11.05-0.001-16.414-5.326-16.415-16.285
		C0.118,88.568,0.285,53.522,0.001,18.48C-0.069,9.796,2.523,3.582,10.902,0.42C50.043,0.42,89.183,0.42,128.323,0.42z
		 M28.255,28.499c0,27.993,0,55.59,0,83.272c27.833,0,55.437,0,83.159,0c0-27.838,0-55.522,0-83.272
		C83.609,28.499,56.006,28.499,28.255,28.499z"/>
	<path d="M306.851,128.624c-2.77,8.446-8.777,11.407-17.415,11.358c-35.23-0.202-70.463-0.082-105.694-0.085
		c-10.965-0.001-16.363-5.402-16.364-16.371c-0.003-35.232-0.001-70.463-0.001-105.695c0-10.147,2.198-13.543,11.269-17.411
		c39.14,0,78.281,0,117.421,0c5.418,2.067,9.223,5.662,10.784,11.383C306.851,50.743,306.851,89.684,306.851,128.624z
		 M195.562,28.494c0,27.859,0,55.54,0,83.268c27.817,0,55.424,0,83.145,0c0-27.835,0-55.506,0-83.268
		C250.87,28.494,223.271,28.494,195.562,28.494z"/>
	<path d="M306.851,295.77c-1.756,5.438-4.842,9.585-10.737,10.944c-1.06,0.244-2.165,0.413-3.249,0.415
		c-15.474,0.026-30.948,0.069-46.421-0.006c-7.04-0.034-12.801-5.074-13.8-11.778c-1.015-6.808,3.016-13.403,9.606-15.362
		c1.875-0.557,3.931-0.682,5.907-0.695c10.076-0.066,20.153-0.031,30.787-0.031c0-2.608-0.006-5.051,0.002-7.495
		c0.008-2.296-0.08-4.599,0.068-6.886c0.456-7.044,5.328-12.455,11.923-13.368c6.576-0.911,12.582,2.744,15.138,9.195
		c0.208,0.526,0.516,1.013,0.777,1.518C306.851,273.404,306.851,284.587,306.851,295.77z"/>
	<path style="fill:#FFFFFF;" d="M306.851,11.802c-1.561-5.721-5.366-9.316-10.784-11.383c3.595,0,7.189,0,10.784,0
		C306.851,4.214,306.851,8.008,306.851,11.802z"/>
	<path d="M0.119,237.374c0-18.071-0.007-36.143,0.003-54.214c0.005-9.767,5.656-15.474,15.409-15.479
		c36.242-0.018,72.485-0.02,108.727,0.001c9.535,0.006,15.32,5.782,15.325,15.305c0.022,36.242,0.02,72.485,0.003,108.727
		c-0.005,9.765-5.703,15.431-15.46,15.434c-36.242,0.008-72.485,0.01-108.727-0.001c-9.594-0.003-15.269-5.679-15.276-15.261
		C0.11,273.716,0.119,255.545,0.119,237.374z M111.409,279.079c0-27.858,0-55.538,0-83.271c-27.814,0-55.422,0-83.147,0
		c0,27.833,0,55.504,0,83.271C56.096,279.079,83.695,279.079,111.409,279.079z"/>
	<path d="M232.417,195.645c-4.489,0-8.979,0.052-13.467-0.011c-8.063-0.113-14.246-6.091-14.366-13.813
		c-0.119-7.657,5.995-13.956,14.059-14.1c9.275-0.165,18.558-0.184,27.831,0.01c8.137,0.171,13.986,6.383,13.831,14.234
		c-0.152,7.709-6.116,13.525-14.121,13.665C241.596,195.71,237.006,195.645,232.417,195.645z"/>
	<path d="M195.347,246.973c-0.002,2.992,0.071,5.986-0.016,8.976c-0.23,7.928-6.206,13.957-13.827,14.029
		c-7.611,0.072-13.818-5.852-14.07-13.76c-0.2-6.277-0.183-12.57-0.009-18.848c0.219-7.909,6.367-13.897,13.956-13.883
		c7.716,0.014,13.775,6.155,13.956,14.211C195.407,240.788,195.349,243.881,195.347,246.973z"/>
	<path d="M241.575,251.62c-2.571-0.226-5.201-0.183-7.702-0.731c-6.401-1.403-10.863-7.292-10.689-13.716
		c0.184-6.793,5.027-12.608,11.788-13.357c4.421-0.49,8.983-0.52,13.403-0.037c7.36,0.805,12.246,7.017,11.912,14.372
		c-0.321,7.079-5.827,12.704-13.014,13.201c-1.885,0.13-3.786,0.02-5.68,0.02C241.586,251.455,241.58,251.538,241.575,251.62z"/>
	<path d="M69.906,56.176c7.59,0.041,13.886,6.368,13.886,13.955c0,7.576-6.291,13.897-13.892,13.956
		c-7.681,0.059-14.11-6.41-14.022-14.11C55.965,62.388,62.321,56.135,69.906,56.176z"/>
	<path d="M237.12,56.176c7.589-0.006,13.917,6.269,13.973,13.858c0.057,7.683-6.431,14.155-14.087,14.049
		c-7.624-0.105-13.875-6.439-13.829-14.012C223.224,62.473,229.536,56.182,237.12,56.176z"/>
	<path d="M69.865,251.395c-7.576,0.019-13.922-6.262-13.988-13.845c-0.067-7.699,6.385-14.15,14.065-14.064
		c7.614,0.085,13.882,6.418,13.849,13.993C83.757,245.078,77.455,251.376,69.865,251.395z"/>
</g>
<g>
	<g>
		<path d="M674.502,263.271c-76.215,0-138.222-62.004-138.222-138.219S598.287-13.17,674.502-13.17s138.222,62.007,138.222,138.222
			S750.717,263.271,674.502,263.271z M674.502,18.05c-59.001,0-107.002,48.001-107.002,107.002
			c0,58.998,48.001,106.999,107.002,106.999s107.002-48.001,107.002-106.999C781.504,66.051,733.503,18.05,674.502,18.05z"/>
	</g>
	<g>
		<path d="M850.407,273.932c-3.183,0-6.396-0.97-9.171-2.985l-78.184-56.861c-6.97-5.07-8.512-14.836-3.439-21.805
			c5.073-6.97,14.83-8.512,21.805-3.445l78.184,56.861c6.97,5.07,8.512,14.836,3.439,21.805
			C859.987,271.704,855.231,273.932,850.407,273.932z"/>
	</g>
</g>
</svg>
