<svg id="Layer_1" data-name="Layer 1" xmlns="http://www.w3.org/2000/svg" viewBox="0 0 122 20"><defs><style>.cls-1{fill:#e95a4c;}.cls-2{fill:#a39f9f;}</style></defs><path class="cls-1" d="M9.85.54l-2.49,5a.94.94,0,0,1-.72.53l-5.56.81A1,1,0,0,0,.54,8.56l4,3.92a1,1,0,0,1,.27.85l-.95,5.54a1,1,0,0,0,1.41,1l5-2.62a1,1,0,0,1,.46-.11V0A1,1,0,0,0,9.85.54Z"/><path class="cls-2" d="M20.89,8.56a1,1,0,0,0-.54-1.65L14.79,6.1a.94.94,0,0,1-.72-.53l-2.49-5A.93.93,0,0,0,10.73,0V17.16a1,1,0,0,1,.44.11l5,2.62a1,1,0,0,0,1.4-1l-.95-5.54a.94.94,0,0,1,.28-.85Z"/><path class="cls-2" d="M45.5,6.91,39.94,6.1a.94.94,0,0,1-.73-.53l-2.49-5A.93.93,0,0,0,35.87,0,1,1,0,0,0,35,.54l-2.48,5a1,1,0,0,1-.73.53l-5.56.81a1,1,0,0,0-.53,1.65l4,3.92a1,1,0,0,1,.28.85L29,18.87a1,1,0,0,0,1.4,1l5-2.62a1,1,0,0,1,.46-.11,1,1,0,0,1,.44.11l5,2.62a1,1,0,0,0,1.4-1l-1-5.54a1,1,0,0,1,.28-.85l4-3.92A1,1,0,0,0,45.5,6.91Z"/><path class="cls-2" d="M70.64,6.91,65.08,6.1a.94.94,0,0,1-.73-.53l-2.48-5a1,1,0,0,0-1.74,0l-2.48,5a.94.94,0,0,1-.73.53l-5.56.81a1,1,0,0,0-.53,1.65l4,3.92a1,1,0,0,1,.28.85l-1,5.54a1,1,0,0,0,1.4,1l5-2.62a1.07,1.07,0,0,1,.46-.11,1,1,0,0,1,.44.11l5,2.62a1,1,0,0,0,1.4-1l-.95-5.54a1,1,0,0,1,.28-.85l4-3.92A1,1,0,0,0,70.64,6.91Z"/><path class="cls-2" d="M95.78,6.91,90.22,6.1a1,1,0,0,1-.73-.53L87,.54a1,1,0,0,0-1.73,0l-2.49,5a.94.94,0,0,1-.73.53l-5.56.81A1,1,0,0,0,76,8.56l4,3.92a1,1,0,0,1,.28.85l-1,5.54a1,1,0,0,0,1.4,1l5-2.62a1.11,1.11,0,0,1,.46-.11,1,1,0,0,1,.44.11l5,2.62a1,1,0,0,0,1.4-1L92,13.33a1,1,0,0,1,.28-.85l4-3.92A1,1,0,0,0,95.78,6.91Z"/><path class="cls-2" d="M121.46,8.56a1,1,0,0,0-.54-1.65l-5.56-.81a.94.94,0,0,1-.72-.53l-2.49-5A.94.94,0,0,0,111.3,0a1,1,0,0,0-.88.54l-2.49,5a.94.94,0,0,1-.72.53l-5.56.81a1,1,0,0,0-.54,1.65l4,3.92a.94.94,0,0,1,.28.85l-1,5.54a1,1,0,0,0,1.4,1l5-2.62a1.12,1.12,0,0,1,.47-.11.92.92,0,0,1,.43.11l5,2.62a1,1,0,0,0,1.41-1l-1-5.54a1,1,0,0,1,.27-.85Z"/></svg>